<?xml version="1.0" encoding="UTF-8" standalone="no"?>
<!-- Created with Inkscape (http://www.inkscape.org/) -->

<svg
   width="2.7584441in"
   height="2.3349547in"
   viewBox="0 0 264.81063 224.15565"
   version="1.1"
   id="svg845"
   inkscape:version="1.2.1 (9c6d41e410, 2022-07-14)"
   sodipodi:docname="cleft.svg"
   xmlns:inkscape="http://www.inkscape.org/namespaces/inkscape"
   xmlns:sodipodi="http://sodipodi.sourceforge.net/DTD/sodipodi-0.dtd"
   xmlns="http://www.w3.org/2000/svg"
   xmlns:svg="http://www.w3.org/2000/svg"
   xmlns:rdf="http://www.w3.org/1999/02/22-rdf-syntax-ns#"
   xmlns:cc="http://creativecommons.org/ns#"
   xmlns:dc="http://purl.org/dc/elements/1.1/">
  <title
     id="title1390">TFWIO DEFAULT INKSCAPE TEMPLATE</title>
  <defs
     id="defs839" />
  <sodipodi:namedview
     id="base"
     pagecolor="#ffffff"
     bordercolor="#666666"
     borderopacity="1.0"
     inkscape:pageopacity="1"
     inkscape:pageshadow="2"
     inkscape:zoom="2"
     inkscape:cx="66.75"
     inkscape:cy="108.5"
     inkscape:document-units="px"
     inkscape:current-layer="svg845"
     inkscape:document-rotation="0"
     showgrid="false"
     units="in"
     showguides="true"
     inkscape:window-width="1082"
     inkscape:window-height="686"
     inkscape:window-x="144"
     inkscape:window-y="167"
     inkscape:window-maximized="0"
     inkscape:snap-intersection-paths="true"
     inkscape:guide-bbox="true"
     fit-margin-top="0.3"
     fit-margin-left="0.3"
     fit-margin-right="0.3"
     fit-margin-bottom="0.3"
     inkscape:showpageshadow="2"
     inkscape:pagecheckerboard="0"
     inkscape:deskcolor="#d1d1d1" />
  <metadata
     id="metadata842">
    <rdf:RDF>
      <cc:Work
         rdf:about="">
        <dc:format>image/svg+xml</dc:format>
        <dc:type
           rdf:resource="http://purl.org/dc/dcmitype/StillImage" />
        <dc:title>TFWIO DEFAULT INKSCAPE TEMPLATE</dc:title>
      </cc:Work>
    </rdf:RDF>
  </metadata>
  <g
     inkscape:label="Layer 1"
     inkscape:groupmode="layer"
     id="layer1"
     transform="translate(-276.89587,-273.15797)">
    <text
       xml:space="preserve"
       style="color:#000000;font-style:normal;font-variant:normal;font-weight:bold;font-stretch:normal;font-size:12px;line-height:100%;font-family:FreeSans;-inkscape-font-specification:'FreeSans Bold';font-variant-ligatures:normal;font-variant-position:normal;font-variant-caps:normal;font-variant-numeric:normal;font-variant-alternates:normal;font-feature-settings:normal;text-indent:0;text-align:end;text-decoration:none;text-decoration-line:none;text-decoration-style:solid;text-decoration-color:#000000;letter-spacing:0px;word-spacing:0px;text-transform:none;writing-mode:lr-tb;direction:ltr;text-orientation:mixed;dominant-baseline:auto;baseline-shift:baseline;text-anchor:end;white-space:normal;shape-padding:0;overflow:visible;opacity:1;vector-effect:none;fill:#000000;fill-opacity:1;fill-rule:evenodd;stroke:none;stroke-width:1.248;stroke-linecap:round;stroke-linejoin:miter;stroke-miterlimit:4;stroke-dasharray:none;stroke-dashoffset:0;stroke-opacity:1;paint-order:stroke fill markers"
       x="406.5864"
       y="401.48428"
       id="text4569"><tspan
         sodipodi:role="line"
         id="tspan4567"
         x="406.5864"
         y="401.48428">+</tspan></text>
    <g
       id="g4649"
       style="fill:#000000">
      <text
         id="text4526"
         y="454.39288"
         x="343.81976"
         style="color:#000000;font-style:normal;font-variant:normal;font-weight:bold;font-stretch:normal;font-size:12px;line-height:100%;font-family:FreeSans;-inkscape-font-specification:'FreeSans Bold';font-variant-ligatures:normal;font-variant-position:normal;font-variant-caps:normal;font-variant-numeric:normal;font-variant-alternates:normal;font-feature-settings:normal;text-indent:0;text-align:end;text-decoration:none;text-decoration-line:none;text-decoration-style:solid;text-decoration-color:#000000;letter-spacing:0px;word-spacing:0px;text-transform:none;writing-mode:lr-tb;direction:ltr;text-orientation:mixed;dominant-baseline:auto;baseline-shift:baseline;text-anchor:end;white-space:normal;shape-padding:0;overflow:visible;opacity:1;vector-effect:none;fill:#000000;fill-opacity:1;fill-rule:evenodd;stroke:none;stroke-width:1.248;stroke-linecap:round;stroke-linejoin:miter;stroke-miterlimit:4;stroke-dasharray:none;stroke-dashoffset:0;stroke-opacity:1;paint-order:stroke fill markers"
         xml:space="preserve"><tspan
           style="font-size:12px;fill:#000000;stroke-width:1.248"
           y="454.39288"
           x="343.81976"
           id="tspan4524"
           sodipodi:role="line">4</tspan></text>
      <text
         xml:space="preserve"
         style="color:#000000;font-style:normal;font-variant:normal;font-weight:bold;font-stretch:normal;font-size:12px;line-height:100%;font-family:FreeSans;-inkscape-font-specification:'FreeSans Bold';font-variant-ligatures:normal;font-variant-position:normal;font-variant-caps:normal;font-variant-numeric:normal;font-variant-alternates:normal;font-feature-settings:normal;text-indent:0;text-align:end;text-decoration:none;text-decoration-line:none;text-decoration-style:solid;text-decoration-color:#000000;letter-spacing:0px;word-spacing:0px;text-transform:none;writing-mode:lr-tb;direction:ltr;text-orientation:mixed;dominant-baseline:auto;baseline-shift:baseline;text-anchor:end;white-space:normal;shape-padding:0;overflow:visible;opacity:1;vector-effect:none;fill:#000000;fill-opacity:1;fill-rule:evenodd;stroke:none;stroke-width:1.248;stroke-linecap:round;stroke-linejoin:miter;stroke-miterlimit:4;stroke-dasharray:none;stroke-dashoffset:0;stroke-opacity:1;paint-order:stroke fill markers"
         x="343.81976"
         y="466.08932"
         id="text4530"><tspan
           sodipodi:role="line"
           id="tspan4528"
           x="343.81976"
           y="466.08932"
           style="font-size:12px;fill:#000000;stroke-width:1.248">4</tspan></text>
    </g>
    <path
       style="color:#000000;overflow:visible;opacity:1;vector-effect:none;fill:#000000;fill-opacity:1;fill-rule:evenodd;stroke:none;stroke-width:1.24800003;stroke-linecap:round;stroke-linejoin:miter;stroke-miterlimit:4;stroke-dasharray:none;stroke-dashoffset:0;stroke-opacity:1;paint-order:stroke fill markers"
       d="m 397.69145,379.94413 v 18.87891 c -0.19723,-0.0658 -0.41057,-0.10321 -0.63477,-0.11132 -0.79789,-0.025 -1.67532,0.32094 -2.38281,0.93945 -1.28099,1.11995 -1.64828,2.79554 -0.82031,3.74219 0.82789,0.94689 2.53767,0.80608 3.81836,-0.31446 0.61492,-0.53852 1.04632,-1.23551 1.19922,-1.9375 0.0405,-0.0776 0.0698,-0.17157 0.0684,-0.30468 v -20.89259 z m -0.68359,19.87891 c 0.27283,0.004 0.49385,0.0926 0.63671,0.25586 0.40911,0.47093 0.0832,1.42695 -0.72851,2.13672 -0.81158,0.70997 -1.80259,0.90572 -2.21485,0.4375 -0.41176,-0.46999 -0.0864,-1.42769 0.72657,-2.13867 0.50086,-0.43799 1.0962,-0.6985 1.58008,-0.69141 z"
       id="path4532"
       inkscape:connector-curvature="0"
       sodipodi:nodetypes="cccccccccccccccc" />
    <rect
       style="color:#000000;overflow:visible;opacity:1;vector-effect:none;fill:#000000;fill-opacity:1;fill-rule:evenodd;stroke:none;stroke-width:1.24800003;stroke-linecap:round;stroke-linejoin:miter;stroke-miterlimit:4;stroke-dasharray:none;stroke-dashoffset:0;stroke-opacity:1;paint-order:stroke fill markers"
       id="rect4565"
       width="5.0446429"
       height="3.3035715"
       x="358.92856"
       y="332.42856" />
    <g
       aria-label="!"
       style="color:#000000;font-style:normal;font-variant:normal;font-weight:bold;font-stretch:normal;font-size:12px;line-height:100%;font-family:'Hymnus FG';-inkscape-font-specification:'Hymnus FG Bold';font-variant-ligatures:normal;font-variant-position:normal;font-variant-caps:normal;font-variant-numeric:normal;font-variant-alternates:normal;font-feature-settings:normal;text-indent:0;text-align:end;text-decoration:none;text-decoration-line:none;text-decoration-style:solid;text-decoration-color:#000000;letter-spacing:0px;word-spacing:0px;text-transform:none;writing-mode:lr-tb;direction:ltr;text-orientation:mixed;dominant-baseline:auto;baseline-shift:baseline;text-anchor:end;white-space:normal;shape-padding:0;overflow:visible;opacity:1;vector-effect:none;fill:#669900;fill-opacity:1;fill-rule:evenodd;stroke:none;stroke-width:1.24800003;stroke-linecap:round;stroke-linejoin:miter;stroke-miterlimit:4;stroke-dasharray:none;stroke-dashoffset:0;stroke-opacity:1;paint-order:stroke fill markers"
       id="text4519" />
    <path
       d="m 322.94313,313.36851 c -0.203,0 -0.53961,0.17875 -1.01323,0.53963 -0.94735,0.72176 -1.6679,1.89477 -2.16412,3.51873 -0.40599,1.35331 -0.61124,2.76302 -0.61124,4.2291 -0.0606,1.98635 0.49283,4.05669 0.84802,5.68835 -0.63155,0.60899 -1.07349,1.0454 -1.32159,1.31607 l -0.60575,0.64428 c -2.02996,2.14274 -3.41869,4.07326 -4.163,5.78748 l -0.26981,0.63876 c -0.38345,1.0601 -0.57821,2.12273 -0.57821,3.18281 -0.0516,2.82039 1.17905,5.18123 2.73845,6.79525 1.00991,1.03119 2.26295,1.77607 3.75946,2.23564 1.15068,0.30646 2.57726,0.41144 4.51542,0.13758 0.20301,0.8571 0.53437,2.22109 0.75991,3.07818 0.20301,0.99244 0.30837,1.86033 0.30837,2.60464 2e-5,1.26309 -0.32607,2.27831 -0.98017,3.04518 -0.6541,0.76687 -1.61692,1.15087 -2.87998,1.15087 -0.99245,0 -1.70252,-0.33654 -2.13107,-1.0132 0.76688,0 1.38757,-0.20526 1.86126,-0.61124 0.4962,-0.406 0.74338,-0.99526 0.74338,-1.76213 0,-0.72176 -0.24725,-1.35294 -0.74338,-1.89427 -0.47369,-0.54131 -1.05741,-0.80947 -1.75662,-0.80947 -0.72177,0 -1.34249,0.32607 -1.86124,0.98017 -0.51879,0.67665 -0.78194,1.38674 -0.78194,2.13106 0,1.17287 0.49987,2.11965 1.49229,2.84144 0.90222,0.67665 1.95931,1.01871 3.17732,1.01871 1.33073,0 2.46184,-0.43145 3.3866,-1.28856 0.94735,-0.85709 1.42069,-1.94069 1.42069,-3.24889 0,-0.81199 -0.11581,-1.76925 -0.34139,-2.87446 -0.22556,-0.94731 -0.43577,-1.89413 -0.63876,-2.84144 l -0.1376,-0.64426 -0.033,-0.20384 c 2.6164,-0.96987 4.00512,-2.82647 4.163,-5.57819 -0.005,-0.23204 0,-0.64429 0,-0.64429 -0.0225,-1.21798 -0.33816,-2.35953 -0.94715,-3.41961 -0.58643,-1.08265 -1.34471,-1.88719 -2.40638,-2.36784 -0.77824,-0.35401 -1.89261,-0.68212 -3.3134,-0.47389 l -0.91568,-4.36095 c 2.92918,-2.70436 3.81245,-6.66807 4.22826,-10.04969 0,-2.72919 -0.6626,-5.00677 -1.9934,-6.83374 -0.31576,-0.42854 -0.58944,-0.64425 -0.81496,-0.64425 z m 0.47354,3.92623 c 0.8571,0 1.28857,0.68912 1.28857,2.06498 -0.24077,2.99379 -1.9838,5.22072 -3.99277,7.34031 -0.36087,-0.8571 -0.53965,-1.80387 -0.53965,-2.8414 -0.0225,-1.6544 0.66659,-3.41756 1.18341,-4.87339 0.58638,-1.12775 1.27003,-1.6905 2.05946,-1.6905 z m -2.60461,14.24012 c 0.22019,1.0479 0.65706,3.31316 0.77638,3.92514 -0.41367,0.1452 -0.69183,0.39074 -0.9725,0.55666 -0.28053,0.16605 -1.31831,1.0725 -1.79677,1.84541 -0.58644,0.94731 -0.88105,1.94154 -0.88105,2.97908 -0.0452,1.32596 0.68959,2.64089 1.44668,3.3829 0.5484,0.51115 1.23897,0.87198 2.07185,1.08298 0.18045,-0.0225 0.26983,-0.0804 0.26983,-0.17056 0,0.0451 -0.3575,-0.23345 -1.0793,-0.84253 -0.48809,-0.42513 -0.82149,-0.90166 -1.00928,-1.4268 -0.2701,-0.63262 -0.10518,-1.71158 -0.077,-1.69592 0.11759,-0.54626 0.38192,-1.06269 0.81035,-1.54701 0.54135,-0.60898 1.15155,-1.0035 1.82818,-1.18392 l 1.7293,8.76101 c -0.94732,0.2481 -1.68392,0.37444 -2.20265,0.37444 -1.624,0 -3.0916,-0.51036 -4.39978,-1.52534 -0.90911,-0.73366 -1.56185,-1.59547 -1.96193,-2.58759 -0.69478,-1.45562 -0.57495,-3.00561 -0.25459,-4.16691 0.28284,-1.18342 0.84174,-2.37182 1.67692,-3.56493 l 0.47428,-0.63884 c 0.90218,-1.15032 2.0857,-2.33931 3.55179,-3.55729 z m 2.20265,6.80069 c 0.94731,0 1.82564,0.30508 2.63765,0.91407 0.66501,0.49879 1.13479,1.0972 1.40694,1.79314 0.22949,0.43444 0.25402,0.98957 0.2498,1.38969 0,2.30062 -0.85741,3.79968 -2.5716,4.49889 z"
       id="path4521"
       inkscape:connector-curvature="0"
       sodipodi:nodetypes="cccccccccccccccssccscscscscsccccccccccccccsccccssccssccccccccccsccccccccccccc"
       style="color:#000000;font-style:normal;font-variant:normal;font-weight:bold;font-stretch:normal;font-size:12px;line-height:100%;font-family:'Hymnus FG';-inkscape-font-specification:'Hymnus FG Bold';font-variant-ligatures:normal;font-variant-position:normal;font-variant-caps:normal;font-variant-numeric:normal;font-variant-alternates:normal;font-feature-settings:normal;text-indent:0;text-align:end;text-decoration:none;text-decoration-line:none;text-decoration-style:solid;text-decoration-color:#000000;letter-spacing:0px;word-spacing:0px;text-transform:none;writing-mode:lr-tb;direction:ltr;text-orientation:mixed;dominant-baseline:auto;baseline-shift:baseline;text-anchor:end;white-space:normal;shape-padding:0;overflow:visible;opacity:1;vector-effect:none;fill:#000000;fill-opacity:1;fill-rule:evenodd;stroke:none;stroke-width:1.24799991;stroke-linecap:round;stroke-linejoin:miter;stroke-miterlimit:4;stroke-dasharray:none;stroke-dashoffset:0;stroke-opacity:1;paint-order:stroke fill markers" />
    <path
       style="color:#000000;font-style:normal;font-variant:normal;font-weight:bold;font-stretch:normal;font-size:12px;line-height:100%;font-family:'Hymnus FG';-inkscape-font-specification:'Hymnus FG Bold';font-variant-ligatures:normal;font-variant-position:normal;font-variant-caps:normal;font-variant-numeric:normal;font-variant-alternates:normal;font-feature-settings:normal;text-indent:0;text-align:end;text-decoration:none;text-decoration-line:none;text-decoration-style:solid;text-decoration-color:#000000;letter-spacing:0px;word-spacing:0px;text-transform:none;writing-mode:lr-tb;direction:ltr;text-orientation:mixed;dominant-baseline:auto;baseline-shift:baseline;text-anchor:end;white-space:normal;shape-padding:0;overflow:visible;opacity:1;vector-effect:none;fill:#000000;fill-opacity:1;fill-rule:evenodd;stroke:none;stroke-width:1.24799991;stroke-linecap:round;stroke-linejoin:miter;stroke-miterlimit:4;stroke-dasharray:none;stroke-dashoffset:0;stroke-opacity:1;paint-order:stroke fill markers"
       sodipodi:nodetypes="cccccccccccccccssccscscscscsccccccccccccccsccccssccssccccccccccsccccccccccccc"
       inkscape:connector-curvature="0"
       id="path4581"
       d="m 322.94313,372.36851 c -0.203,0 -0.53961,0.17875 -1.01323,0.53963 -0.94735,0.72176 -1.6679,1.89477 -2.16412,3.51873 -0.40599,1.35331 -0.61124,2.76302 -0.61124,4.2291 -0.0606,1.98635 0.49283,4.05669 0.84802,5.68835 -0.63155,0.60899 -1.07349,1.0454 -1.32159,1.31607 l -0.60575,0.64428 c -2.02996,2.14274 -3.41869,4.07326 -4.163,5.78748 l -0.26981,0.63876 c -0.38345,1.0601 -0.57821,2.12273 -0.57821,3.18281 -0.0516,2.82039 1.17905,5.18123 2.73845,6.79525 1.00991,1.03119 2.26295,1.77607 3.75946,2.23564 1.15068,0.30646 2.57726,0.41144 4.51542,0.13758 0.20301,0.8571 0.53437,2.22109 0.75991,3.07818 0.20301,0.99244 0.30837,1.86033 0.30837,2.60464 2e-5,1.26309 -0.32607,2.27831 -0.98017,3.04518 -0.6541,0.76687 -1.61692,1.15087 -2.87998,1.15087 -0.99245,0 -1.70252,-0.33654 -2.13107,-1.0132 0.76688,0 1.38757,-0.20526 1.86126,-0.61124 0.4962,-0.406 0.74338,-0.99526 0.74338,-1.76213 0,-0.72176 -0.24725,-1.35294 -0.74338,-1.89427 -0.47369,-0.54131 -1.05741,-0.80947 -1.75662,-0.80947 -0.72177,0 -1.34249,0.32607 -1.86124,0.98017 -0.51879,0.67665 -0.78194,1.38674 -0.78194,2.13106 0,1.17287 0.49987,2.11965 1.49229,2.84144 0.90222,0.67665 1.95931,1.01871 3.17732,1.01871 1.33073,0 2.46184,-0.43145 3.3866,-1.28856 0.94735,-0.85709 1.42069,-1.94069 1.42069,-3.24889 0,-0.81199 -0.11581,-1.76925 -0.34139,-2.87446 -0.22556,-0.94731 -0.43577,-1.89413 -0.63876,-2.84144 l -0.1376,-0.64426 -0.033,-0.20384 c 2.6164,-0.96987 4.00512,-2.82647 4.163,-5.57819 -0.005,-0.23204 0,-0.64429 0,-0.64429 -0.0225,-1.21798 -0.33816,-2.35953 -0.94715,-3.41961 -0.58643,-1.08265 -1.34471,-1.88719 -2.40638,-2.36784 -0.77824,-0.35401 -1.89261,-0.68212 -3.3134,-0.47389 l -0.91568,-4.36095 c 2.92918,-2.70436 3.81245,-6.66807 4.22826,-10.04969 0,-2.72919 -0.6626,-5.00677 -1.9934,-6.83374 -0.31576,-0.42854 -0.58944,-0.64425 -0.81496,-0.64425 z m 0.47354,3.92623 c 0.8571,0 1.28857,0.68912 1.28857,2.06498 -0.24077,2.99379 -1.9838,5.22072 -3.99277,7.34031 -0.36087,-0.8571 -0.53965,-1.80387 -0.53965,-2.8414 -0.0225,-1.6544 0.66659,-3.41756 1.18341,-4.87339 0.58638,-1.12775 1.27003,-1.6905 2.05946,-1.6905 z m -2.60461,14.24012 c 0.22019,1.0479 0.65706,3.31316 0.77638,3.92514 -0.41367,0.1452 -0.69183,0.39074 -0.9725,0.55666 -0.28053,0.16605 -1.31831,1.0725 -1.79677,1.84541 -0.58644,0.94731 -0.88105,1.94154 -0.88105,2.97908 -0.0452,1.32596 0.68959,2.64089 1.44668,3.3829 0.5484,0.51115 1.23897,0.87198 2.07185,1.08298 0.18045,-0.0225 0.26983,-0.0804 0.26983,-0.17056 0,0.0451 -0.3575,-0.23345 -1.0793,-0.84253 -0.48809,-0.42513 -0.82149,-0.90166 -1.00928,-1.4268 -0.2701,-0.63262 -0.10518,-1.71158 -0.077,-1.69592 0.11759,-0.54626 0.38192,-1.06269 0.81035,-1.54701 0.54135,-0.60898 1.15155,-1.0035 1.82818,-1.18392 l 1.7293,8.76101 c -0.94732,0.2481 -1.68392,0.37444 -2.20265,0.37444 -1.624,0 -3.0916,-0.51036 -4.39978,-1.52534 -0.90911,-0.73366 -1.56185,-1.59547 -1.96193,-2.58759 -0.69478,-1.45562 -0.57495,-3.00561 -0.25459,-4.16691 0.28284,-1.18342 0.84174,-2.37182 1.67692,-3.56493 l 0.47428,-0.63884 c 0.90218,-1.15032 2.0857,-2.33931 3.55179,-3.55729 z m 2.20265,6.80069 c 0.94731,0 1.82564,0.30508 2.63765,0.91407 0.66501,0.49879 1.13479,1.0972 1.40694,1.79314 0.22949,0.43444 0.25402,0.98957 0.2498,1.38969 0,2.30062 -0.85741,3.79968 -2.5716,4.49889 z" />
    <g
       aria-label="?"
       style="color:#000000;font-style:normal;font-variant:normal;font-weight:bold;font-stretch:normal;font-size:26.66666603px;line-height:100%;font-family:'Hymnus FG';-inkscape-font-specification:'Hymnus FG Bold';font-variant-ligatures:normal;font-variant-position:normal;font-variant-caps:normal;font-variant-numeric:normal;font-variant-alternates:normal;font-feature-settings:normal;text-indent:0;text-align:end;text-decoration:none;text-decoration-line:none;text-decoration-style:solid;text-decoration-color:#000000;letter-spacing:0px;word-spacing:0px;text-transform:none;writing-mode:lr-tb;direction:ltr;text-orientation:mixed;dominant-baseline:auto;baseline-shift:baseline;text-anchor:end;white-space:normal;shape-padding:0;overflow:visible;opacity:1;vector-effect:none;fill:#669900;fill-opacity:1;fill-rule:evenodd;stroke:none;stroke-width:1.24800003;stroke-linecap:round;stroke-linejoin:miter;stroke-miterlimit:4;stroke-dasharray:none;stroke-dashoffset:0;stroke-opacity:1;paint-order:stroke fill markers"
       id="text4604" />
    <path
       d="m 320.21003,444.99878 c -1.81922,0 -3.31293,0.35698 -4.47961,1.06885 -1.36442,0.83052 -2.10594,2.08624 -2.22459,3.76704 v 0.56268 c 0.0198,0.87005 0.31726,1.56274 0.89071,2.07687 0.57345,0.51413 1.27459,0.77121 2.10511,0.77121 0.77119,-0.0198 1.4426,-0.26622 2.01604,-0.74081 0.57342,-0.49435 0.8709,-1.10843 0.89071,-1.84007 v -0.2672 l -0.0891,-0.56268 c -0.3164,-1.1469 -1.06856,-1.80983 -2.25502,-1.98779 -0.51413,-0.0593 -1.23439,0.14891 -2.16377,0.62349 1.02825,-1.70058 2.54954,-2.55047 4.5665,-2.55047 4.45207,0.11926 4.33627,5.53815 3.23256,9.55013 l -0.14771,0.56266 c -1.68419,4.82353 -5.80154,7.90513 -9.43282,10.50167 0.9096,-0.21752 2.10802,-0.72324 3.59108,-1.51421 5.52059,-3.46062 10.30631,-7.04303 10.23228,-13.37582 0.0165,-2.03028 -1.0279,-4.26516 -2.46142,-5.33991 -1.14691,-0.87007 -2.57048,-1.30564 -4.27106,-1.30564 z m 9.46106,0.86029 c -0.3955,0 -0.72272,0.12964 -0.97979,0.38671 -0.25706,0.25706 -0.38452,0.58212 -0.38452,0.9776 0,0.94915 0.44406,1.42513 1.33389,1.42513 0.92939,0 1.39472,-0.4547 1.39472,-1.36431 0,-0.39549 -0.1381,-0.73335 -0.41494,-1.01018 -0.25705,-0.27685 -0.57367,-0.41495 -0.94936,-0.41495 z m 0,5.5767 c -0.90962,0 -1.36431,0.45468 -1.36431,1.3643 0,0.90961 0.45469,1.36431 1.36431,1.36431 0.9096,0 1.3643,-0.4547 1.3643,-1.36431 0,-0.35594 -0.1381,-0.67252 -0.41494,-0.94935 -0.25705,-0.27685 -0.57367,-0.41495 -0.94936,-0.41495 z"
       id="path4606"
       inkscape:connector-curvature="0"
       sodipodi:nodetypes="cccccccccccccccccccccssssscssssscs"
       style="color:#000000;font-style:normal;font-variant:normal;font-weight:bold;font-stretch:normal;font-size:26.66666603px;line-height:100%;font-family:'Hymnus FG';-inkscape-font-specification:'Hymnus FG Bold';font-variant-ligatures:normal;font-variant-position:normal;font-variant-caps:normal;font-variant-numeric:normal;font-variant-alternates:normal;font-feature-settings:normal;text-indent:0;text-align:end;text-decoration:none;text-decoration-line:none;text-decoration-style:solid;text-decoration-color:#000000;letter-spacing:0px;word-spacing:0px;text-transform:none;writing-mode:lr-tb;direction:ltr;text-orientation:mixed;dominant-baseline:auto;baseline-shift:baseline;text-anchor:end;white-space:normal;shape-padding:0;overflow:visible;opacity:1;vector-effect:none;fill:#000000;fill-opacity:1;fill-rule:evenodd;stroke:none;stroke-width:1.24799991;stroke-linecap:round;stroke-linejoin:miter;stroke-miterlimit:4;stroke-dasharray:none;stroke-dashoffset:0;stroke-opacity:1;paint-order:stroke fill markers" />
    <path
       style="color:#000000;overflow:visible;opacity:1;vector-effect:none;fill:#000000;fill-opacity:1;fill-rule:evenodd;stroke:none;stroke-width:1.24800014;stroke-linecap:round;stroke-linejoin:miter;stroke-miterlimit:4;stroke-dasharray:none;stroke-dashoffset:0;stroke-opacity:1;paint-order:stroke fill markers"
       d="m 358.66369,389.09774 0.877,0.0191 2.9932,3.62235 -0.91512,1.14391 c -1.1916,1.60407 -1.22204,2.48283 -0.59102,3.71767 l 1.41082,2.02089 -0.26691,0.36224 -0.68635,-0.32411 c -2.44634,-0.91466 -2.31226,1.70317 -0.95324,3.12666 l -0.24784,0.34317 c -1.91164,-1.44515 -2.53552,-2.22291 -2.54518,-3.46029 0.0578,-0.55061 0.29399,-1.0709 1.0295,-1.35363 0.50148,-0.19276 1.09453,-0.0757 1.53473,0.0763 l 0.62915,0.31457 -2.91694,-3.90833 c 1.42797,-1.14202 2.77194,-2.9757 1.15344,-5.05223 z"
       id="path4633"
       inkscape:connector-curvature="0"
       sodipodi:nodetypes="cccccccccccscccsc" />
    <g
       id="g4659"
       transform="translate(0,-59.5)"
       style="fill:#000000">
      <text
         xml:space="preserve"
         style="color:#000000;font-style:normal;font-variant:normal;font-weight:bold;font-stretch:normal;font-size:12px;line-height:100%;font-family:FreeSans;-inkscape-font-specification:'FreeSans Bold';font-variant-ligatures:normal;font-variant-position:normal;font-variant-caps:normal;font-variant-numeric:normal;font-variant-alternates:normal;font-feature-settings:normal;text-indent:0;text-align:end;text-decoration:none;text-decoration-line:none;text-decoration-style:solid;text-decoration-color:#000000;letter-spacing:0px;word-spacing:0px;text-transform:none;writing-mode:lr-tb;direction:ltr;text-orientation:mixed;dominant-baseline:auto;baseline-shift:baseline;text-anchor:end;white-space:normal;shape-padding:0;overflow:visible;opacity:1;vector-effect:none;fill:#000000;fill-opacity:1;fill-rule:evenodd;stroke:none;stroke-width:1.248;stroke-linecap:round;stroke-linejoin:miter;stroke-miterlimit:4;stroke-dasharray:none;stroke-dashoffset:0;stroke-opacity:1;paint-order:stroke fill markers"
         x="343.81976"
         y="454.39288"
         id="text4653"><tspan
           sodipodi:role="line"
           id="tspan4651"
           x="343.81976"
           y="454.39288"
           style="font-size:12px;fill:#000000;stroke-width:1.248">4</tspan></text>
      <text
         id="text4657"
         y="466.08932"
         x="343.81976"
         style="color:#000000;font-style:normal;font-variant:normal;font-weight:bold;font-stretch:normal;font-size:12px;line-height:100%;font-family:FreeSans;-inkscape-font-specification:'FreeSans Bold';font-variant-ligatures:normal;font-variant-position:normal;font-variant-caps:normal;font-variant-numeric:normal;font-variant-alternates:normal;font-feature-settings:normal;text-indent:0;text-align:end;text-decoration:none;text-decoration-line:none;text-decoration-style:solid;text-decoration-color:#000000;letter-spacing:0px;word-spacing:0px;text-transform:none;writing-mode:lr-tb;direction:ltr;text-orientation:mixed;dominant-baseline:auto;baseline-shift:baseline;text-anchor:end;white-space:normal;shape-padding:0;overflow:visible;opacity:1;vector-effect:none;fill:#000000;fill-opacity:1;fill-rule:evenodd;stroke:none;stroke-width:1.248;stroke-linecap:round;stroke-linejoin:miter;stroke-miterlimit:4;stroke-dasharray:none;stroke-dashoffset:0;stroke-opacity:1;paint-order:stroke fill markers"
         xml:space="preserve"><tspan
           style="font-size:12px;fill:#000000;stroke-width:1.248"
           y="466.08932"
           x="343.81976"
           id="tspan4655"
           sodipodi:role="line">4</tspan></text>
    </g>
    <g
       transform="translate(0,-120.66474)"
       id="g4669"
       style="fill:#000000">
      <text
         id="text4663"
         y="454.39288"
         x="343.81976"
         style="color:#000000;font-style:normal;font-variant:normal;font-weight:bold;font-stretch:normal;font-size:12px;line-height:100%;font-family:FreeSans;-inkscape-font-specification:'FreeSans Bold';font-variant-ligatures:normal;font-variant-position:normal;font-variant-caps:normal;font-variant-numeric:normal;font-variant-alternates:normal;font-feature-settings:normal;text-indent:0;text-align:end;text-decoration:none;text-decoration-line:none;text-decoration-style:solid;text-decoration-color:#000000;letter-spacing:0px;word-spacing:0px;text-transform:none;writing-mode:lr-tb;direction:ltr;text-orientation:mixed;dominant-baseline:auto;baseline-shift:baseline;text-anchor:end;white-space:normal;shape-padding:0;overflow:visible;opacity:1;vector-effect:none;fill:#000000;fill-opacity:1;fill-rule:evenodd;stroke:none;stroke-width:1.248;stroke-linecap:round;stroke-linejoin:miter;stroke-miterlimit:4;stroke-dasharray:none;stroke-dashoffset:0;stroke-opacity:1;paint-order:stroke fill markers"
         xml:space="preserve"><tspan
           style="font-size:12px;fill:#000000;stroke-width:1.248"
           y="454.39288"
           x="343.81976"
           id="tspan4661"
           sodipodi:role="line">4</tspan></text>
      <text
         xml:space="preserve"
         style="color:#000000;font-style:normal;font-variant:normal;font-weight:bold;font-stretch:normal;font-size:12px;line-height:100%;font-family:FreeSans;-inkscape-font-specification:'FreeSans Bold';font-variant-ligatures:normal;font-variant-position:normal;font-variant-caps:normal;font-variant-numeric:normal;font-variant-alternates:normal;font-feature-settings:normal;text-indent:0;text-align:end;text-decoration:none;text-decoration-line:none;text-decoration-style:solid;text-decoration-color:#000000;letter-spacing:0px;word-spacing:0px;text-transform:none;writing-mode:lr-tb;direction:ltr;text-orientation:mixed;dominant-baseline:auto;baseline-shift:baseline;text-anchor:end;white-space:normal;shape-padding:0;overflow:visible;opacity:1;vector-effect:none;fill:#000000;fill-opacity:1;fill-rule:evenodd;stroke:none;stroke-width:1.248;stroke-linecap:round;stroke-linejoin:miter;stroke-miterlimit:4;stroke-dasharray:none;stroke-dashoffset:0;stroke-opacity:1;paint-order:stroke fill markers"
         x="343.81976"
         y="466.08932"
         id="text4667"><tspan
           sodipodi:role="line"
           id="tspan4665"
           x="343.81976"
           y="466.08932"
           style="font-size:12px;fill:#000000;stroke-width:1.248">4</tspan></text>
    </g>
    <path
       style="color:#000000;overflow:visible;opacity:1;vector-effect:none;fill:#000000;fill-opacity:1;fill-rule:evenodd;stroke:none;stroke-width:1.24800003;stroke-linecap:round;stroke-linejoin:miter;stroke-miterlimit:4;stroke-dasharray:none;stroke-dashoffset:0;stroke-opacity:1;paint-order:stroke fill markers"
       d="m 430.19117,347.45225 v -18.87891 c 0.19723,0.0658 0.41057,0.10321 0.63477,0.11132 0.79789,0.025 1.67532,-0.32094 2.38281,-0.93945 1.28099,-1.11995 1.64828,-2.79554 0.82031,-3.74219 -0.82789,-0.94689 -2.53767,-0.80608 -3.81836,0.31446 -0.61492,0.53852 -1.04632,1.23551 -1.19922,1.9375 -0.0405,0.0776 -0.0698,0.17157 -0.0684,0.30468 v 20.89259 z m 0.68359,-19.87891 c -0.27283,-0.004 -0.49385,-0.0926 -0.63671,-0.25586 -0.40911,-0.47093 -0.0832,-1.42695 0.72851,-2.13672 0.81158,-0.70997 1.80259,-0.90572 2.21485,-0.4375 0.41176,0.46999 0.0864,1.42769 -0.72657,2.13867 -0.50086,0.43799 -1.0962,0.6985 -1.58008,0.69141 z"
       id="path4739"
       inkscape:connector-curvature="0"
       sodipodi:nodetypes="cccccccccccccccc" />
    <path
       sodipodi:nodetypes="cccccccccccccc"
       inkscape:connector-curvature="0"
       id="path4671"
       d="m 358.41983,461.15586 c 0.19723,0.0658 0.41057,0.10321 0.63477,0.11132 0.79789,0.025 1.67532,-0.32094 2.38281,-0.93945 1.28099,-1.11995 1.64828,-2.79554 0.82031,-3.74219 -0.82789,-0.94689 -2.53767,-0.80608 -3.81836,0.31446 -0.61492,0.53852 -1.04632,1.23551 -1.19922,1.9375 -0.0405,0.0776 -0.0698,0.17157 -0.0684,0.30468 -0.003,0.88598 0.0657,1.73498 1.24809,2.01368 z m 0.68359,-1 c -0.27283,-0.004 -0.49385,-0.0926 -0.63671,-0.25586 -0.40911,-0.47093 -0.0832,-1.42695 0.72851,-2.13672 0.81158,-0.70997 1.80259,-0.90572 2.21485,-0.4375 0.41176,0.46999 0.0864,1.42769 -0.72657,2.13867 -0.50086,0.43799 -1.0962,0.6985 -1.58008,0.69141 z"
       style="color:#000000;overflow:visible;opacity:1;vector-effect:none;fill:#000000;fill-opacity:1;fill-rule:evenodd;stroke:none;stroke-width:1.24800003;stroke-linecap:round;stroke-linejoin:miter;stroke-miterlimit:4;stroke-dasharray:none;stroke-dashoffset:0;stroke-opacity:1;paint-order:stroke fill markers" />
    <path
       style="color:#000000;overflow:visible;opacity:1;vector-effect:none;fill:#000000;fill-opacity:1;fill-rule:evenodd;stroke:none;stroke-width:1.24800003;stroke-linecap:round;stroke-linejoin:miter;stroke-miterlimit:4;stroke-dasharray:none;stroke-dashoffset:0;stroke-opacity:1;paint-order:stroke fill markers"
       d="m 358.41983,440.47299 c 0.19723,0.0658 0.41057,0.10321 0.63477,0.11132 0.79789,0.025 1.67532,-0.32094 2.38281,-0.93945 1.28099,-1.11995 1.64828,-2.79554 0.82031,-3.74219 -0.82789,-0.94689 -2.53767,-0.80608 -3.81836,0.31446 -0.61492,0.53852 -1.04632,1.23551 -1.19922,1.9375 -0.0405,0.0776 -0.0698,0.17157 -0.0684,0.30468 -0.003,0.88598 0.0657,1.73498 1.24809,2.01368 z m 0.68359,-1 c -0.27283,-0.004 -0.49385,-0.0926 -0.63671,-0.25586 -0.40911,-0.47093 -0.0832,-1.42695 0.72851,-2.13672 0.81158,-0.70997 1.80259,-0.90572 2.21485,-0.4375 0.41176,0.46999 0.0864,1.42769 -0.72657,2.13867 -0.50086,0.43799 -1.0962,0.6985 -1.58008,0.69141 z"
       id="path4741"
       inkscape:connector-curvature="0"
       sodipodi:nodetypes="cccccccccccccc" />
    <g
       id="g4827">
      <path
         style="color:#000000;overflow:visible;opacity:1;vector-effect:none;fill:none;fill-opacity:1;fill-rule:evenodd;stroke:#000000;stroke-width:1.24800003;stroke-linecap:round;stroke-linejoin:miter;stroke-miterlimit:4;stroke-dasharray:none;stroke-dashoffset:0;stroke-opacity:1;paint-order:stroke fill markers"
         d="M 306.32876,443.59502 H 512.27361"
         id="path4685"
         inkscape:connector-curvature="0" />
      <path
         style="color:#000000;overflow:visible;opacity:1;vector-effect:none;fill:none;fill-opacity:1;fill-rule:evenodd;stroke:#000000;stroke-width:1.24800003;stroke-linecap:round;stroke-linejoin:miter;stroke-miterlimit:4;stroke-dasharray:none;stroke-dashoffset:0;stroke-opacity:1;paint-order:stroke fill markers"
         d="M 306.32876,449.66643 H 512.27361"
         id="path4687"
         inkscape:connector-curvature="0" />
      <path
         style="color:#000000;overflow:visible;opacity:1;vector-effect:none;fill:none;fill-opacity:1;fill-rule:evenodd;stroke:#000000;stroke-width:1.24800003;stroke-linecap:round;stroke-linejoin:miter;stroke-miterlimit:4;stroke-dasharray:none;stroke-dashoffset:0;stroke-opacity:1;paint-order:stroke fill markers"
         d="M 306.32876,455.73784 H 512.27361"
         id="path4689"
         inkscape:connector-curvature="0" />
      <path
         style="color:#000000;overflow:visible;opacity:1;vector-effect:none;fill:none;fill-opacity:1;fill-rule:evenodd;stroke:#000000;stroke-width:1.24800003;stroke-linecap:round;stroke-linejoin:miter;stroke-miterlimit:4;stroke-dasharray:none;stroke-dashoffset:0;stroke-opacity:1;paint-order:stroke fill markers"
         d="M 306.32876,461.80936 H 512.27361"
         id="path4691"
         inkscape:connector-curvature="0" />
      <path
         inkscape:connector-curvature="0"
         id="path4693"
         d="M 306.32876,467.88073 H 512.27361"
         style="color:#000000;overflow:visible;opacity:1;vector-effect:none;fill:none;fill-opacity:1;fill-rule:evenodd;stroke:#000000;stroke-width:1.24800003;stroke-linecap:round;stroke-linejoin:miter;stroke-miterlimit:4;stroke-dasharray:none;stroke-dashoffset:0;stroke-opacity:1;paint-order:stroke fill markers" />
      <path
         sodipodi:nodetypes="cc"
         inkscape:connector-curvature="0"
         id="path4735"
         d="m 506.34023,443.59502 v 24.28571"
         style="color:#000000;overflow:visible;opacity:1;vector-effect:none;fill:none;fill-opacity:1;fill-rule:evenodd;stroke:#000000;stroke-width:1.24800003;stroke-linecap:round;stroke-linejoin:miter;stroke-miterlimit:4;stroke-dasharray:none;stroke-dashoffset:0;stroke-opacity:1;paint-order:stroke fill markers" />
    </g>
    <g
       id="g4840"
       style="stroke:#000000">
      <path
         inkscape:connector-curvature="0"
         id="path4571"
         d="M 306.32876,324.09397 H 512.27361"
         style="color:#000000;overflow:visible;opacity:1;vector-effect:none;fill:none;fill-opacity:1;fill-rule:evenodd;stroke:#000000;stroke-width:1.24800003;stroke-linecap:round;stroke-linejoin:miter;stroke-miterlimit:4;stroke-dasharray:none;stroke-dashoffset:0;stroke-opacity:1;paint-order:stroke fill markers" />
      <path
         inkscape:connector-curvature="0"
         id="path4575"
         d="M 306.32876,330.16538 H 512.27361"
         style="color:#000000;overflow:visible;opacity:1;vector-effect:none;fill:none;fill-opacity:1;fill-rule:evenodd;stroke:#000000;stroke-width:1.24800003;stroke-linecap:round;stroke-linejoin:miter;stroke-miterlimit:4;stroke-dasharray:none;stroke-dashoffset:0;stroke-opacity:1;paint-order:stroke fill markers" />
      <path
         inkscape:connector-curvature="0"
         id="path4577"
         d="M 306.32876,336.23679 H 512.27361"
         style="color:#000000;overflow:visible;opacity:1;vector-effect:none;fill:none;fill-opacity:1;fill-rule:evenodd;stroke:#000000;stroke-width:1.24800003;stroke-linecap:round;stroke-linejoin:miter;stroke-miterlimit:4;stroke-dasharray:none;stroke-dashoffset:0;stroke-opacity:1;paint-order:stroke fill markers" />
      <path
         inkscape:connector-curvature="0"
         id="path4579"
         d="M 306.32876,342.30831 H 512.27361"
         style="color:#000000;overflow:visible;opacity:1;vector-effect:none;fill:none;fill-opacity:1;fill-rule:evenodd;stroke:#000000;stroke-width:1.24800003;stroke-linecap:round;stroke-linejoin:miter;stroke-miterlimit:4;stroke-dasharray:none;stroke-dashoffset:0;stroke-opacity:1;paint-order:stroke fill markers" />
      <path
         style="color:#000000;overflow:visible;opacity:1;vector-effect:none;fill:none;fill-opacity:1;fill-rule:evenodd;stroke:#000000;stroke-width:1.24800003;stroke-linecap:round;stroke-linejoin:miter;stroke-miterlimit:4;stroke-dasharray:none;stroke-dashoffset:0;stroke-opacity:1;paint-order:stroke fill markers"
         d="M 306.32876,348.37968 H 512.27361"
         id="path4573"
         inkscape:connector-curvature="0" />
      <path
         style="color:#000000;overflow:visible;opacity:1;vector-effect:none;fill:none;fill-opacity:1;fill-rule:evenodd;stroke:#000000;stroke-width:1.24800003;stroke-linecap:round;stroke-linejoin:miter;stroke-miterlimit:4;stroke-dasharray:none;stroke-dashoffset:0;stroke-opacity:1;paint-order:stroke fill markers"
         d="m 506.34023,324.09397 v 24.28571"
         id="path4724"
         inkscape:connector-curvature="0"
         sodipodi:nodetypes="cc" />
    </g>
    <g
       id="g4814"
       style="stroke:#000000">
      <path
         style="color:#000000;overflow:visible;opacity:1;vector-effect:none;fill:none;fill-opacity:1;fill-rule:evenodd;stroke:#000000;stroke-width:1.24800003;stroke-linecap:round;stroke-linejoin:miter;stroke-miterlimit:4;stroke-dasharray:none;stroke-dashoffset:0;stroke-opacity:1;paint-order:stroke fill markers"
         d="M 306.32876,383.49094 H 512.27361"
         id="path4673"
         inkscape:connector-curvature="0" />
      <path
         style="color:#000000;overflow:visible;opacity:1;vector-effect:none;fill:none;fill-opacity:1;fill-rule:evenodd;stroke:#000000;stroke-width:1.24800003;stroke-linecap:round;stroke-linejoin:miter;stroke-miterlimit:4;stroke-dasharray:none;stroke-dashoffset:0;stroke-opacity:1;paint-order:stroke fill markers"
         d="M 306.32876,389.56235 H 512.27361"
         id="path4675"
         inkscape:connector-curvature="0" />
      <path
         style="color:#000000;overflow:visible;opacity:1;vector-effect:none;fill:none;fill-opacity:1;fill-rule:evenodd;stroke:#000000;stroke-width:1.24800003;stroke-linecap:round;stroke-linejoin:miter;stroke-miterlimit:4;stroke-dasharray:none;stroke-dashoffset:0;stroke-opacity:1;paint-order:stroke fill markers"
         d="M 306.32876,395.63376 H 512.27361"
         id="path4677"
         inkscape:connector-curvature="0" />
      <path
         style="color:#000000;overflow:visible;opacity:1;vector-effect:none;fill:none;fill-opacity:1;fill-rule:evenodd;stroke:#000000;stroke-width:1.24800003;stroke-linecap:round;stroke-linejoin:miter;stroke-miterlimit:4;stroke-dasharray:none;stroke-dashoffset:0;stroke-opacity:1;paint-order:stroke fill markers"
         d="M 306.32876,401.70528 H 512.27361"
         id="path4679"
         inkscape:connector-curvature="0" />
      <path
         inkscape:connector-curvature="0"
         id="path4681"
         d="M 306.32876,407.77665 H 512.27361"
         style="color:#000000;overflow:visible;opacity:1;vector-effect:none;fill:none;fill-opacity:1;fill-rule:evenodd;stroke:#000000;stroke-width:1.24800003;stroke-linecap:round;stroke-linejoin:miter;stroke-miterlimit:4;stroke-dasharray:none;stroke-dashoffset:0;stroke-opacity:1;paint-order:stroke fill markers" />
      <path
         style="color:#000000;overflow:visible;opacity:1;vector-effect:none;fill:none;fill-opacity:1;fill-rule:evenodd;stroke:#000000;stroke-width:1.24800003;stroke-linecap:round;stroke-linejoin:miter;stroke-miterlimit:4;stroke-dasharray:none;stroke-dashoffset:0;stroke-opacity:1;paint-order:stroke fill markers"
         d="m 506.34023,383.49094 v 24.28571"
         id="path4737"
         inkscape:connector-curvature="0"
         sodipodi:nodetypes="cc" />
    </g>
  </g>
  <text
     xml:space="preserve"
     style="color:#000000;font-style:normal;font-variant:normal;font-weight:bold;font-stretch:normal;font-size:12px;line-height:100%;font-family:'Hymnus FG';-inkscape-font-specification:'Hymnus FG Bold';font-variant-ligatures:normal;font-variant-position:normal;font-variant-caps:normal;font-variant-numeric:normal;font-variant-alternates:normal;font-feature-settings:normal;text-indent:0;text-align:start;text-decoration:none;text-decoration-line:none;text-decoration-style:solid;text-decoration-color:#000000;letter-spacing:0px;word-spacing:0px;text-transform:none;writing-mode:lr-tb;direction:ltr;text-orientation:mixed;dominant-baseline:auto;baseline-shift:baseline;text-anchor:start;white-space:normal;shape-padding:0;overflow:visible;opacity:1;vector-effect:none;fill:#000000;fill-opacity:1;fill-rule:evenodd;stroke:#669900;stroke-width:1.248;stroke-linecap:round;stroke-linejoin:miter;stroke-miterlimit:4;stroke-dasharray:none;stroke-dashoffset:0;stroke-opacity:1;paint-order:stroke fill markers"
     x="53.513515"
     y="39.144001"
     id="text4793"><tspan
       sodipodi:role="line"
       id="tspan4791"
       x="53.513515"
       y="39.144001"
       style="font-style:normal;font-variant:normal;font-weight:bold;font-stretch:normal;font-size:13.3333px;font-family:FreeSans;-inkscape-font-specification:'FreeSans Bold';text-align:start;text-anchor:start;fill:#000000;stroke:none">1 - Electric Piano 2</tspan></text>
  <text
     id="text4797"
     y="99.018997"
     x="53.513515"
     style="color:#000000;font-style:normal;font-variant:normal;font-weight:bold;font-stretch:normal;font-size:12px;line-height:100%;font-family:'Hymnus FG';-inkscape-font-specification:'Hymnus FG Bold';font-variant-ligatures:normal;font-variant-position:normal;font-variant-caps:normal;font-variant-numeric:normal;font-variant-alternates:normal;font-feature-settings:normal;text-indent:0;text-align:start;text-decoration:none;text-decoration-line:none;text-decoration-style:solid;text-decoration-color:#000000;letter-spacing:0px;word-spacing:0px;text-transform:none;writing-mode:lr-tb;direction:ltr;text-orientation:mixed;dominant-baseline:auto;baseline-shift:baseline;text-anchor:start;white-space:normal;shape-padding:0;overflow:visible;opacity:1;vector-effect:none;fill:#000000;fill-opacity:1;fill-rule:evenodd;stroke:#669900;stroke-width:1.248;stroke-linecap:round;stroke-linejoin:miter;stroke-miterlimit:4;stroke-dasharray:none;stroke-dashoffset:0;stroke-opacity:1;paint-order:stroke fill markers"
     xml:space="preserve"><tspan
       style="font-style:normal;font-variant:normal;font-weight:bold;font-stretch:normal;font-size:13.3333px;font-family:FreeSans;-inkscape-font-specification:'FreeSans Bold';text-align:start;text-anchor:start;fill:#000000;stroke:none"
       y="99.018997"
       x="53.513515"
       id="tspan4795"
       sodipodi:role="line">2 - Harp</tspan></text>
  <text
     xml:space="preserve"
     style="color:#000000;font-style:normal;font-variant:normal;font-weight:bold;font-stretch:normal;font-size:13.7802px;line-height:100%;font-family:'Hymnus FG';-inkscape-font-specification:'Hymnus FG Bold';font-variant-ligatures:normal;font-variant-position:normal;font-variant-caps:normal;font-variant-numeric:normal;font-variant-alternates:normal;font-feature-settings:normal;text-indent:0;text-align:start;text-decoration:none;text-decoration-line:none;text-decoration-style:solid;text-decoration-color:#000000;letter-spacing:0px;word-spacing:0px;text-transform:none;writing-mode:lr-tb;direction:ltr;text-orientation:mixed;dominant-baseline:auto;baseline-shift:baseline;text-anchor:start;white-space:normal;shape-padding:0;overflow:visible;opacity:1;vector-effect:none;fill:#000000;fill-opacity:1;fill-rule:evenodd;stroke:#669900;stroke-width:1.248;stroke-linecap:round;stroke-linejoin:miter;stroke-miterlimit:4;stroke-dasharray:none;stroke-dashoffset:0;stroke-opacity:1;paint-order:stroke fill markers"
     x="53.848427"
     y="157.58235"
     id="text4801"
     transform="scale(0.99287464,1.0071765)"><tspan
       sodipodi:role="line"
       id="tspan4799"
       x="53.848427"
       y="157.58235"
       style="font-style:normal;font-variant:normal;font-weight:bold;font-stretch:normal;font-size:13.3333px;font-family:FreeSans;-inkscape-font-specification:'FreeSans Bold';text-align:start;text-anchor:start;fill:#000000;stroke:none;stroke-width:1.248">3 - Bassoon</tspan></text>
</svg>
