<?xml version="1.0" encoding="UTF-8" standalone="no"?>
<!-- Created with Inkscape (http://www.inkscape.org/) -->

<svg
   xmlns:dc="http://purl.org/dc/elements/1.1/"
   xmlns:cc="http://creativecommons.org/ns#"
   xmlns:rdf="http://www.w3.org/1999/02/22-rdf-syntax-ns#"
   xmlns:svg="http://www.w3.org/2000/svg"
   xmlns="http://www.w3.org/2000/svg"
   xmlns:sodipodi="http://sodipodi.sourceforge.net/DTD/sodipodi-0.dtd"
   xmlns:inkscape="http://www.inkscape.org/namespaces/inkscape"
   width="3in"
   height="2.9999988in"
   viewBox="0 0 288.00001 287.9999"
   version="1.1"
   id="svg845"
   inkscape:version="0.92.1 r15371"
   sodipodi:docname="logo-plug.svg">
  <title
     id="title1390">TFWIO DEFAULT INKSCAPE TEMPLATE</title>
  <defs
     id="defs839" />
  <sodipodi:namedview
     id="base"
     pagecolor="#ffffff"
     bordercolor="#666666"
     borderopacity="1.0"
     inkscape:pageopacity="0.0"
     inkscape:pageshadow="2"
     inkscape:zoom="0.70710678"
     inkscape:cx="236.09772"
     inkscape:cy="123.38814"
     inkscape:document-units="px"
     inkscape:current-layer="svg845"
     inkscape:document-rotation="0"
     showgrid="false"
     units="in"
     showguides="true"
     inkscape:window-width="1280"
     inkscape:window-height="1001"
     inkscape:window-x="-8"
     inkscape:window-y="-8"
     inkscape:window-maximized="1"
     fit-margin-top="0.21"
     fit-margin-left="0.21"
     fit-margin-right="0.21"
     fit-margin-bottom="0.21"
     inkscape:guide-bbox="true"
     inkscape:snap-bbox="true"
     inkscape:snap-intersection-paths="true"
     inkscape:bbox-paths="true"
     inkscape:snap-bbox-edge-midpoints="true"
     inkscape:bbox-nodes="true"
     inkscape:snap-bbox-midpoints="true"
     inkscape:snap-object-midpoints="true"
     inkscape:snap-center="true"
     inkscape:snap-midpoints="true"
     inkscape:snap-smooth-nodes="true"
     inkscape:snap-page="true"
     inkscape:object-paths="true"
     inkscape:pagecheckerboard="true">
    <inkscape:grid
       type="xygrid"
       id="grid9095"
       originx="-1179.4783"
       originy="-52.880098" />
    <sodipodi:guide
       position="576.00002,0"
       orientation="1,0"
       id="guide4728"
       inkscape:locked="false" />
    <sodipodi:guide
       position="864.00003,0"
       orientation="1,0"
       id="guide4730"
       inkscape:locked="false" />
    <sodipodi:guide
       position="432.00001,0"
       orientation="1,0"
       id="guide4732"
       inkscape:locked="false" />
    <sodipodi:guide
       position="720.00002,0"
       orientation="1,0"
       id="guide4734"
       inkscape:locked="false" />
    <sodipodi:guide
       position="1008,0"
       orientation="1,0"
       id="guide4736"
       inkscape:locked="false" />
    <sodipodi:guide
       position="1152,0"
       orientation="1,0"
       id="guide4738"
       inkscape:locked="false" />
    <sodipodi:guide
       position="1295.9999,0"
       orientation="1,0"
       id="guide4740"
       inkscape:locked="false" />
    <sodipodi:guide
       position="1439.9999,0"
       orientation="1,0"
       id="guide4742"
       inkscape:locked="false" />
    <sodipodi:guide
       position="1583.9999,0"
       orientation="1,0"
       id="guide4744"
       inkscape:locked="false" />
    <sodipodi:guide
       position="1727.9999,0"
       orientation="1,0"
       id="guide4746"
       inkscape:locked="false" />
    <sodipodi:guide
       position="1727.9999,288.00001"
       orientation="0,1"
       id="guide4748"
       inkscape:locked="false" />
    <sodipodi:guide
       position="1727.9999,-7.6293951e-006"
       orientation="0,1"
       id="guide4750"
       inkscape:locked="false" />
    <sodipodi:guide
       position="143.99952,267.8399"
       orientation="0,1"
       id="guide4752"
       inkscape:locked="false" />
    <sodipodi:guide
       position="144,20.15999"
       orientation="0,1"
       id="guide4754"
       inkscape:locked="false" />
    <sodipodi:guide
       position="20.699428,154.64923"
       orientation="1,0"
       id="guide4756"
       inkscape:locked="false" />
    <sodipodi:guide
       position="267.30981,133.4469"
       orientation="1,0"
       id="guide4758"
       inkscape:locked="false" />
    <sodipodi:guide
       position="251.07069,143.7246"
       orientation="0,1"
       id="guide4967"
       inkscape:locked="false" />
    <sodipodi:guide
       position="143.99996,225.45878"
       orientation="1,0"
       id="guide5019"
       inkscape:locked="false" />
    <sodipodi:guide
       position="-144,144"
       orientation="1,0"
       id="guide5077"
       inkscape:locked="false" />
  </sodipodi:namedview>
  <metadata
     id="metadata842">
    <rdf:RDF>
      <cc:Work
         rdf:about="">
        <dc:format>image/svg+xml</dc:format>
        <dc:type
           rdf:resource="http://purl.org/dc/dcmitype/StillImage" />
        <dc:title>TFWIO DEFAULT INKSCAPE TEMPLATE</dc:title>
      </cc:Work>
    </rdf:RDF>
  </metadata>
  <rect
     style="color:#000000;overflow:visible;opacity:1;vector-effect:none;fill:#b50000;fill-opacity:1;fill-rule:evenodd;stroke:none;stroke-width:3.09600019;stroke-linecap:round;stroke-linejoin:miter;stroke-miterlimit:4;stroke-dasharray:none;stroke-dashoffset:0;stroke-opacity:1;paint-order:normal"
     id="rect4982"
     width="247.68002"
     height="247.68002"
     x="596.15997"
     y="20.159866"
     rx="19.968"
     ry="19.968" />
  <path
     inkscape:connector-curvature="0"
     id="path4666"
     d="M 143.99996,20.160006 A 123.83994,123.83996 0 0 0 20.16,143.99996 123.83994,123.83996 0 0 0 143.99996,267.83989 123.83994,123.83996 0 0 0 267.84,143.99996 123.83994,123.83996 0 0 0 143.99996,20.160006 Z m 0,16.772206 A 107.06943,107.06944 0 0 1 251.07103,143.99996 107.06943,107.06944 0 0 1 143.99996,251.07101 107.06943,107.06944 0 0 1 36.932204,143.99996 107.06943,107.06944 0 0 1 143.99996,36.932212 Z m 0,13.216961 a 93.849636,93.849639 0 0 0 -93.850786,93.850787 93.849636,93.849639 0 0 0 93.850786,93.85076 93.849636,93.849639 0 0 0 93.85078,-93.85076 93.849636,93.849639 0 0 0 -93.85078,-93.850787 z m 0,12.391947 A 17.600454,17.600454 0 0 1 161.60052,80.141653 17.600454,17.600454 0 0 1 143.99996,97.742201 17.600454,17.600454 0 0 1 126.39942,80.141653 17.600454,17.600454 0 0 1 143.99996,62.54112 Z M 98.84555,81.245009 A 17.600454,17.600454 0 0 1 116.4461,98.845551 17.600454,17.600454 0 0 1 98.84555,116.44611 17.600454,17.600454 0 0 1 81.245013,98.845551 17.600454,17.600454 0 0 1 98.84555,81.245009 Z m 90.30883,0 A 17.600454,17.600454 0 0 1 206.7549,98.845551 17.600454,17.600454 0 0 1 189.15438,116.44611 17.600454,17.600454 0 0 1 171.55384,98.845551 17.600454,17.600454 0 0 1 189.15438,81.245009 Z M 80.141669,126.39944 A 17.600454,17.600454 0 0 1 97.74222,143.99996 17.600454,17.600454 0 0 1 80.141669,161.60047 17.600454,17.600454 0 0 1 62.541122,143.99996 17.600454,17.600454 0 0 1 80.141669,126.39944 Z m 127.716581,0 a 17.600454,17.600454 0 0 1 17.60054,17.60052 17.600454,17.600454 0 0 1 -17.60054,17.60051 17.600454,17.600454 0 0 1 -17.60054,-17.60051 17.600454,17.600454 0 0 1 17.60054,-17.60052 z"
     style="color:#000000;overflow:visible;opacity:1;vector-effect:none;fill:#5d5d5d;fill-opacity:1;fill-rule:evenodd;stroke:none;stroke-width:2.448;stroke-linecap:round;stroke-linejoin:miter;stroke-miterlimit:4;stroke-dasharray:none;stroke-dashoffset:0;stroke-opacity:1;paint-order:stroke fill markers" />
  <g
     inkscape:label="Layer 1"
     inkscape:groupmode="layer"
     id="layer1"
     transform="translate(-1259.4781,-494.12011)" />
  <path
     style="color:#000000;overflow:visible;opacity:1;vector-effect:none;fill:#ffffff;fill-opacity:1;fill-rule:evenodd;stroke:none;stroke-width:17.36510468;stroke-linecap:round;stroke-linejoin:miter;stroke-miterlimit:4;stroke-dasharray:none;stroke-dashoffset:0;stroke-opacity:1;paint-order:normal"
     d="M 720.00017,41.824846 A 102.17521,102.17519 0 0 0 617.82599,143.99902 102.17521,102.17519 0 0 0 720.00017,246.17507 102.17521,102.17519 0 0 0 822.17622,143.99902 102.17521,102.17519 0 0 0 720.00017,41.824846 Z m 0,12.614511 a 89.559703,89.559685 0 0 1 89.56154,89.559663 89.559703,89.559685 0 0 1 -89.56154,89.56154 89.559703,89.559685 0 0 1 -89.56153,-89.56154 89.559703,89.559685 0 0 1 89.56153,-89.559663 z m 0,11.824243 A 16.795925,16.795921 0 0 0 703.20506,83.060578 16.795925,16.795921 0 0 0 720.00017,99.855696 16.795925,16.795921 0 0 0 736.79529,83.060578 16.795925,16.795921 0 0 0 720.00017,66.2636 Z m -43.09025,17.850056 a 16.795925,16.795921 0 0 0 -16.79699,16.795104 16.795925,16.795921 0 0 0 16.79699,16.79699 16.795925,16.795921 0 0 0 16.79511,-16.79699 16.795925,16.795921 0 0 0 -16.79511,-16.795104 z m 86.18051,0 a 16.795925,16.795921 0 0 0 -16.79512,16.795104 16.795925,16.795921 0 0 0 16.79512,16.79699 16.795925,16.795921 0 0 0 16.79698,-16.79699 16.795925,16.795921 0 0 0 -16.79698,-16.795104 z M 659.06172,127.20392 a 16.795925,16.795921 0 0 0 -16.79698,16.7951 16.795925,16.795921 0 0 0 16.79698,16.79698 16.795925,16.795921 0 0 0 16.79513,-16.79698 16.795925,16.795921 0 0 0 -16.79513,-16.7951 z m 121.87691,0 a 16.795925,16.795921 0 0 0 -16.79513,16.7951 16.795925,16.795921 0 0 0 16.79513,16.79698 16.795925,16.795921 0 0 0 16.79696,-16.79698 16.795925,16.795921 0 0 0 -16.79696,-16.7951 z"
     id="path4881"
     inkscape:connector-curvature="0" />
  <rect
     style="color:#000000;overflow:visible;opacity:1;vector-effect:none;fill:#ccff42;fill-opacity:1;fill-rule:evenodd;stroke:none;stroke-width:3.5999999;stroke-linecap:round;stroke-linejoin:miter;stroke-miterlimit:4;stroke-dasharray:none;stroke-dashoffset:0;stroke-opacity:1;paint-order:normal"
     id="rect4726"
     width="288"
     height="288"
     x="-288"
     y="-0.00010681152" />
  <path
     style="color:#000000;overflow:visible;opacity:1;vector-effect:none;fill:#000000;fill-opacity:1;fill-rule:evenodd;stroke:none;stroke-width:0;stroke-linecap:round;stroke-linejoin:miter;stroke-miterlimit:4;stroke-dasharray:none;stroke-dashoffset:0;stroke-opacity:1;paint-order:stroke fill markers"
     d="M 431.99995,20.160006 A 123.83994,123.83996 0 0 0 308.15999,143.99996 123.83994,123.83996 0 0 0 431.99995,267.83989 123.83994,123.83996 0 0 0 555.83999,143.99996 123.83994,123.83996 0 0 0 431.99995,20.160006 Z m 0,16.772206 A 107.06943,107.06944 0 0 1 539.07102,143.99996 107.06943,107.06944 0 0 1 431.99995,251.07101 107.06943,107.06944 0 0 1 324.93219,143.99996 107.06943,107.06944 0 0 1 431.99995,36.932212 Z m 0,13.216961 a 93.849636,93.849639 0 0 0 -93.85079,93.850787 93.849636,93.849639 0 0 0 93.85079,93.85076 93.849636,93.849639 0 0 0 93.85078,-93.85076 93.849636,93.849639 0 0 0 -93.85078,-93.850787 z m 0,12.391947 A 17.600454,17.600454 0 0 1 449.60051,80.141653 17.600454,17.600454 0 0 1 431.99995,97.742201 17.600454,17.600454 0 0 1 414.39941,80.141653 17.600454,17.600454 0 0 1 431.99995,62.54112 Z M 386.84554,81.245009 A 17.600454,17.600454 0 0 1 404.44609,98.845551 17.600454,17.600454 0 0 1 386.84554,116.44611 17.600454,17.600454 0 0 1 369.245,98.845551 17.600454,17.600454 0 0 1 386.84554,81.245009 Z m 90.30883,0 A 17.600454,17.600454 0 0 1 494.75489,98.845551 17.600454,17.600454 0 0 1 477.15437,116.44611 17.600454,17.600454 0 0 1 459.55383,98.845551 17.600454,17.600454 0 0 1 477.15437,81.245009 Z M 368.14165,126.39944 a 17.600454,17.600454 0 0 1 17.60056,17.60052 17.600454,17.600454 0 0 1 -17.60056,17.60051 17.600454,17.600454 0 0 1 -17.60054,-17.60051 17.600454,17.600454 0 0 1 17.60054,-17.60052 z m 127.71659,0 a 17.600454,17.600454 0 0 1 17.60054,17.60052 17.600454,17.600454 0 0 1 -17.60054,17.60051 17.600454,17.600454 0 0 1 -17.60054,-17.60051 17.600454,17.600454 0 0 1 17.60054,-17.60052 z"
     id="path4978"
     inkscape:connector-curvature="0" />
  <path
     inkscape:connector-curvature="0"
     id="path4984"
     d="M 719.99993,25.820827 A 118.17911,118.17913 0 0 0 601.8208,143.99996 118.17911,118.17913 0 0 0 719.99993,262.17906 118.17911,118.17913 0 0 0 838.17916,143.99996 118.17911,118.17913 0 0 0 719.99993,25.820827 Z m 0,16.005535 A 102.17519,102.17521 0 0 1 822.17671,143.99996 102.17519,102.17521 0 0 1 719.99993,246.17671 102.17519,102.17521 0 0 1 617.82634,143.99996 102.17519,102.17521 0 0 1 719.99993,41.826362 Z m 0,12.612803 a 89.559693,89.559693 0 0 0 -89.56078,89.560795 89.559693,89.559693 0 0 0 89.56078,89.56076 89.559693,89.559693 0 0 0 89.5608,-89.56076 89.559693,89.559693 0 0 0 -89.5608,-89.560795 z m 0,11.825502 a 16.795923,16.795923 0 0 1 16.79604,16.795997 16.795923,16.795923 0 0 1 -16.79604,16.796013 16.795923,16.795923 0 0 1 -16.79598,-16.796013 16.795923,16.795923 0 0 1 16.79598,-16.795997 z m -43.09035,17.848918 a 16.795923,16.795923 0 0 1 16.79601,16.796005 16.795923,16.795923 0 0 1 -16.79601,16.79603 16.795923,16.795923 0 0 1 -16.796,-16.79603 16.795923,16.795923 0 0 1 16.796,-16.796005 z m 86.18073,0 a 16.795923,16.795923 0 0 1 16.796,16.796005 16.795923,16.795923 0 0 1 -16.796,16.79603 16.795923,16.795923 0 0 1 -16.79599,-16.79603 16.795923,16.795923 0 0 1 16.79599,-16.796005 z M 659.06066,127.20397 a 16.795923,16.795923 0 0 1 16.79602,16.79599 16.795923,16.795923 0 0 1 -16.79602,16.79599 16.795923,16.795923 0 0 1 -16.79601,-16.79599 16.795923,16.795923 0 0 1 16.79601,-16.79599 z m 121.87856,0 a 16.795923,16.795923 0 0 1 16.796,16.79599 16.795923,16.795923 0 0 1 -16.796,16.79599 16.795923,16.795923 0 0 1 -16.79601,-16.79599 16.795923,16.795923 0 0 1 16.79601,-16.79599 z"
     style="color:#000000;overflow:visible;opacity:1;vector-effect:none;fill:#000000;fill-opacity:1;fill-rule:evenodd;stroke:none;stroke-width:0;stroke-linecap:round;stroke-linejoin:miter;stroke-miterlimit:4;stroke-dasharray:none;stroke-dashoffset:0;stroke-opacity:1;paint-order:stroke fill markers" />
  <rect
     style="color:#000000;overflow:visible;opacity:1;vector-effect:none;fill:#477895;fill-opacity:1;fill-rule:evenodd;stroke:#ffffff;stroke-width:1.24800003;stroke-linecap:round;stroke-linejoin:miter;stroke-miterlimit:4;stroke-dasharray:none;stroke-dashoffset:0;stroke-opacity:1;paint-order:normal"
     id="rect5017"
     width="268.47971"
     height="268.47971"
     x="-278.23984"
     y="10.035425"
     rx="21.644875"
     ry="21.644875" />
  <path
     inkscape:connector-curvature="0"
     id="path4980"
     d="M 144.00091,36.930713 A 107.06944,107.06942 0 0 0 36.93255,143.99908 107.06944,107.06942 0 0 0 144.00091,251.06939 107.06944,107.06942 0 0 0 251.07122,143.99908 107.06944,107.06942 0 0 0 144.00091,36.930713 Z m 0,13.21875 a 93.849644,93.849629 0 0 1 93.85156,93.849617 93.849644,93.849629 0 0 1 -93.85156,93.85156 93.849644,93.849629 0 0 1 -93.85156,-93.85156 93.849644,93.849629 0 0 1 93.85156,-93.849617 z m 0,12.39063 a 17.600456,17.600452 0 0 0 -17.59961,17.60156 17.600456,17.600452 0 0 0 17.59961,17.599611 17.600456,17.600452 0 0 0 17.59961,-17.599611 17.600456,17.600452 0 0 0 -17.59961,-17.60156 z M 98.84662,81.245173 A 17.600456,17.600452 0 0 0 81.24505,98.844774 17.600456,17.600452 0 0 0 98.84662,116.44635 17.600456,17.600452 0 0 0 116.44622,98.844774 17.600456,17.600452 0 0 0 98.84662,81.245173 Z m 90.30859,0 A 17.600456,17.600452 0 0 0 171.5556,98.844774 17.600456,17.600452 0 0 0 189.15521,116.44635 17.600456,17.600452 0 0 0 206.75677,98.844774 17.600456,17.600452 0 0 0 189.15521,81.245173 Z M 80.14349,126.39947 A 17.600456,17.600452 0 0 0 62.54193,143.99908 17.600456,17.600452 0 0 0 80.14349,161.60064 17.600456,17.600452 0 0 0 97.7431,143.99908 17.600456,17.600452 0 0 0 80.14349,126.39947 Z m 127.71484,0 a 17.600456,17.600452 0 0 0 -17.59961,17.59961 17.600456,17.600452 0 0 0 17.59961,17.60156 17.600456,17.600452 0 0 0 17.60156,-17.60156 17.600456,17.600452 0 0 0 -17.60156,-17.59961 z"
     style="color:#000000;overflow:visible;opacity:1;vector-effect:none;fill:#292929;fill-opacity:1;fill-rule:evenodd;stroke:none;stroke-width:18.19689751;stroke-linecap:round;stroke-linejoin:miter;stroke-miterlimit:4;stroke-dasharray:none;stroke-dashoffset:0;stroke-opacity:1;paint-order:normal" />
</svg>
